<mxfile host="Electron" modified="2023-05-15T09:50:40.405Z" agent="Mozilla/5.0 (Macintosh; Intel Mac OS X 10_15_7) AppleWebKit/537.36 (KHTML, like Gecko) draw.io/21.2.8 Chrome/112.0.5615.165 Electron/24.2.0 Safari/537.36" etag="vwXRBgKBB4I7JBe0W8Sn" version="21.2.8" type="device">
  <diagram name="Page-1" id="3amLKMiNIkerllaun4_X">
    <mxGraphModel dx="4024" dy="6776" grid="0" gridSize="10" guides="1" tooltips="1" connect="1" arrows="1" fold="1" page="0" pageScale="1" pageWidth="827" pageHeight="1169" math="0" shadow="0">
      <root>
        <mxCell id="0" />
        <mxCell id="1" parent="0" />
        <mxCell id="H6MUFZ5RtAEz5xBZW3GO-19" value="" style="ellipse;whiteSpace=wrap;html=1;aspect=fixed;fillColor=none;strokeWidth=20;opacity=20;fontColor=#000000;strokeColor=#B09500;" parent="1" vertex="1">
          <mxGeometry x="2016" y="-2937.5" width="949" height="949" as="geometry" />
        </mxCell>
        <mxCell id="8Q4rBxFAuIVXhYAT0IOr-50" value="" style="whiteSpace=wrap;html=1;dashed=1;opacity=60;fontSize=24;fontFamily=Verdana;labelBackgroundColor=none;fontStyle=0;fillColor=#e3c800;strokeColor=#B09500;rounded=1;fontColor=#000000;" parent="1" vertex="1">
          <mxGeometry x="2350" y="1301.005" width="800" height="460" as="geometry" />
        </mxCell>
        <mxCell id="8Q4rBxFAuIVXhYAT0IOr-58" value="" style="group" parent="1" vertex="1" connectable="0">
          <mxGeometry x="1422" y="-36" width="548" height="430" as="geometry" />
        </mxCell>
        <mxCell id="8Q4rBxFAuIVXhYAT0IOr-3" value="" style="whiteSpace=wrap;html=1;dashed=1;fillColor=#e3c800;opacity=60;fontSize=24;fontFamily=Verdana;labelBackgroundColor=none;strokeColor=#B09500;fontStyle=0;rounded=1;fontColor=#000000;" parent="8Q4rBxFAuIVXhYAT0IOr-58" vertex="1">
          <mxGeometry y="90" width="548" height="340" as="geometry" />
        </mxCell>
        <mxCell id="8Q4rBxFAuIVXhYAT0IOr-4" value="Amazon ElastiCache for Redis" style="outlineConnect=0;strokeColor=#B09500;fillColor=#e3c800;dashed=0;verticalLabelPosition=middle;verticalAlign=bottom;align=center;html=1;whiteSpace=wrap;fontSize=24;fontStyle=0;spacing=3;shape=mxgraph.aws4.productIcon;prIcon=mxgraph.aws4.elasticache_for_redis;rounded=1;fontColor=#000000;" parent="8Q4rBxFAuIVXhYAT0IOr-58" vertex="1">
          <mxGeometry x="208" y="147" width="132" height="226" as="geometry" />
        </mxCell>
        <mxCell id="8Q4rBxFAuIVXhYAT0IOr-6" value="Shared-Cache" style="text;html=1;fontSize=48;fontStyle=0;verticalAlign=middle;align=center;labelBackgroundColor=none;opacity=60;fontFamily=Verdana;rounded=1;arcSize=44;fillColor=#e3c800;fontColor=#000000;strokeColor=#B09500;" parent="8Q4rBxFAuIVXhYAT0IOr-58" vertex="1">
          <mxGeometry x="2" width="546" height="80" as="geometry" />
        </mxCell>
        <mxCell id="8Q4rBxFAuIVXhYAT0IOr-9" value="" style="whiteSpace=wrap;html=1;dashed=1;opacity=60;fontSize=24;fontFamily=Verdana;labelBackgroundColor=none;fontStyle=0;fillColor=#e3c800;strokeColor=#B09500;rounded=1;fontColor=#000000;container=0;" parent="1" vertex="1">
          <mxGeometry x="2333" y="3.0050000000000665" width="800" height="460" as="geometry" />
        </mxCell>
        <mxCell id="8Q4rBxFAuIVXhYAT0IOr-10" value="Availability" style="text;html=1;fontSize=48;fontStyle=0;verticalAlign=middle;align=center;labelBackgroundColor=none;opacity=50;fontFamily=Verdana;rounded=1;arcSize=44;fillColor=#e3c800;fontColor=#000000;strokeColor=#B09500;container=0;" parent="1" vertex="1">
          <mxGeometry x="2334" y="-83.99499999999993" width="797" height="80" as="geometry" />
        </mxCell>
        <mxCell id="8Q4rBxFAuIVXhYAT0IOr-43" value="" style="whiteSpace=wrap;html=1;dashed=1;opacity=60;fontSize=24;fontFamily=Verdana;labelBackgroundColor=none;fontStyle=0;fillColor=#e3c800;strokeColor=#B09500;rounded=1;fontColor=#000000;container=0;" parent="1" vertex="1">
          <mxGeometry x="2335" y="654.0050000000001" width="800" height="460" as="geometry" />
        </mxCell>
        <mxCell id="8Q4rBxFAuIVXhYAT0IOr-45" value="Telemetry-Processing-Position" style="text;html=1;fontSize=48;fontStyle=0;verticalAlign=middle;align=center;labelBackgroundColor=none;opacity=60;fontFamily=Verdana;rounded=1;arcSize=44;fillColor=#e3c800;fontColor=#000000;strokeColor=#B09500;container=0;" parent="1" vertex="1">
          <mxGeometry x="2338" y="565.0050000000001" width="797" height="80" as="geometry" />
        </mxCell>
        <mxCell id="8Q4rBxFAuIVXhYAT0IOr-49" value="" style="rounded=1;whiteSpace=wrap;html=1;fillColor=#e3c800;fontColor=#000000;strokeColor=#B09500;opacity=60;container=0;" parent="1" vertex="1">
          <mxGeometry x="1402.5" y="691.0000000000001" width="587" height="430" as="geometry" />
        </mxCell>
        <mxCell id="8Q4rBxFAuIVXhYAT0IOr-51" value="Aggregation" style="text;html=1;fontSize=48;fontStyle=0;verticalAlign=middle;align=center;labelBackgroundColor=none;opacity=60;fontFamily=Verdana;rounded=1;arcSize=44;fillColor=#e3c800;fontColor=#000000;strokeColor=#B09500;container=0;" parent="1" vertex="1">
          <mxGeometry x="1402.5" y="598" width="591" height="80" as="geometry" />
        </mxCell>
        <mxCell id="8Q4rBxFAuIVXhYAT0IOr-39" value="Telemetry-Processing-Accelerometer" style="text;html=1;fontSize=36;fontStyle=0;verticalAlign=middle;align=center;labelBackgroundColor=none;opacity=60;fontFamily=Verdana;rounded=1;arcSize=44;fillColor=#e3c800;fontColor=#000000;strokeColor=#B09500;" parent="1" vertex="1">
          <mxGeometry x="2350" y="1213.005" width="797" height="80" as="geometry" />
        </mxCell>
        <mxCell id="8Q4rBxFAuIVXhYAT0IOr-59" style="edgeStyle=orthogonalEdgeStyle;rounded=0;orthogonalLoop=1;jettySize=auto;html=1;fontSize=36;strokeColor=#4D4D4D;strokeWidth=8;" parent="1" source="8Q4rBxFAuIVXhYAT0IOr-44" target="8Q4rBxFAuIVXhYAT0IOr-17" edge="1">
          <mxGeometry relative="1" as="geometry" />
        </mxCell>
        <mxCell id="8Q4rBxFAuIVXhYAT0IOr-60" style="edgeStyle=orthogonalEdgeStyle;rounded=0;orthogonalLoop=1;jettySize=auto;html=1;fontSize=36;strokeColor=#4D4D4D;strokeWidth=8;" parent="1" source="8Q4rBxFAuIVXhYAT0IOr-37" target="8Q4rBxFAuIVXhYAT0IOr-17" edge="1">
          <mxGeometry relative="1" as="geometry" />
        </mxCell>
        <mxCell id="8Q4rBxFAuIVXhYAT0IOr-18" style="edgeStyle=orthogonalEdgeStyle;shape=connector;rounded=0;orthogonalLoop=1;jettySize=auto;html=1;labelBackgroundColor=default;fontFamily=Helvetica;fontSize=24;fontColor=#FFFFFF;startArrow=none;startFill=0;endArrow=classic;endFill=1;strokeColor=#4D4D4D;strokeWidth=8;fillColor=#e3c800;fontStyle=0" parent="1" source="8Q4rBxFAuIVXhYAT0IOr-12" target="8Q4rBxFAuIVXhYAT0IOr-17" edge="1">
          <mxGeometry relative="1" as="geometry">
            <Array as="points">
              <mxPoint x="3388" y="177" />
            </Array>
          </mxGeometry>
        </mxCell>
        <mxCell id="8Q4rBxFAuIVXhYAT0IOr-19" style="edgeStyle=orthogonalEdgeStyle;shape=connector;rounded=0;orthogonalLoop=1;jettySize=auto;html=1;labelBackgroundColor=default;fontFamily=Helvetica;fontSize=24;fontColor=#FFFFFF;startArrow=none;startFill=0;endArrow=classic;endFill=1;strokeColor=#4D4D4D;strokeWidth=8;fillColor=#e3c800;fontStyle=0" parent="1" source="8Q4rBxFAuIVXhYAT0IOr-15" target="8Q4rBxFAuIVXhYAT0IOr-17" edge="1">
          <mxGeometry relative="1" as="geometry">
            <Array as="points">
              <mxPoint x="3388" y="331" />
            </Array>
          </mxGeometry>
        </mxCell>
        <mxCell id="8Q4rBxFAuIVXhYAT0IOr-62" style="edgeStyle=orthogonalEdgeStyle;rounded=0;orthogonalLoop=1;jettySize=auto;html=1;fontSize=36;strokeColor=#4D4D4D;strokeWidth=8;" parent="1" source="8Q4rBxFAuIVXhYAT0IOr-1" target="8Q4rBxFAuIVXhYAT0IOr-47" edge="1">
          <mxGeometry relative="1" as="geometry" />
        </mxCell>
        <mxCell id="8Q4rBxFAuIVXhYAT0IOr-12" value="Set Available for telemetry" style="outlineConnect=0;dashed=0;verticalLabelPosition=bottom;verticalAlign=top;align=center;html=1;shape=mxgraph.aws3.lambda_function;fillColor=#e3c800;strokeColor=#B09500;fontColor=#000000;fontSize=32;fontStyle=0;rounded=0;container=0;" parent="1" vertex="1">
          <mxGeometry x="2854" y="145.00500000000017" width="69" height="72" as="geometry" />
        </mxCell>
        <mxCell id="8Q4rBxFAuIVXhYAT0IOr-13" value="" style="strokeColor=#B09500;shadow=1;strokeWidth=1;absoluteArcSize=1;arcSize=2;fillColor=#e3c800;fontColor=#000000;fontSize=24;fontStyle=0;container=0;" parent="1" vertex="1">
          <mxGeometry x="2397.5" y="293.12500000000006" width="186" height="74" as="geometry" />
        </mxCell>
        <mxCell id="8Q4rBxFAuIVXhYAT0IOr-15" value="Set Unavailable for telemetry" style="outlineConnect=0;dashed=0;verticalLabelPosition=bottom;verticalAlign=top;align=center;html=1;shape=mxgraph.aws3.lambda_function;fillColor=#e3c800;strokeColor=#B09500;fontColor=#000000;fontSize=32;fontStyle=0;rounded=0;container=0;" parent="1" vertex="1">
          <mxGeometry x="2854" y="295.12499999999983" width="69" height="72" as="geometry" />
        </mxCell>
        <mxCell id="8Q4rBxFAuIVXhYAT0IOr-16" style="edgeStyle=orthogonalEdgeStyle;html=1;labelBackgroundColor=#114B5F;strokeColor=#4D4D4D;fontColor=#FFFFFF;strokeWidth=8;rounded=0;fontSize=24;fontStyle=0;fillColor=#e3c800;" parent="1" source="8Q4rBxFAuIVXhYAT0IOr-13" target="8Q4rBxFAuIVXhYAT0IOr-15" edge="1">
          <mxGeometry relative="1" as="geometry" />
        </mxCell>
        <mxCell id="8Q4rBxFAuIVXhYAT0IOr-28" style="edgeStyle=orthogonalEdgeStyle;shape=connector;rounded=0;orthogonalLoop=1;jettySize=auto;html=1;labelBackgroundColor=default;fontFamily=Helvetica;fontSize=24;fontColor=#FFFFFF;startArrow=none;startFill=0;endArrow=classic;endFill=1;strokeColor=#4D4D4D;strokeWidth=8;fillColor=#e3c800;" parent="1" source="8Q4rBxFAuIVXhYAT0IOr-29" target="8Q4rBxFAuIVXhYAT0IOr-12" edge="1">
          <mxGeometry relative="1" as="geometry" />
        </mxCell>
        <mxCell id="8Q4rBxFAuIVXhYAT0IOr-29" value="Amazon SQS" style="outlineConnect=0;dashed=0;verticalLabelPosition=middle;verticalAlign=bottom;align=center;html=1;whiteSpace=wrap;fontSize=24;fontStyle=0;spacing=3;shape=mxgraph.aws4.productIcon;prIcon=mxgraph.aws4.sqs;fillColor=#e3c800;strokeColor=#B09500;rounded=0;fontColor=#000000;container=0;" parent="1" vertex="1">
          <mxGeometry x="2439.5" y="98.00500000000007" width="102" height="166" as="geometry" />
        </mxCell>
        <mxCell id="8Q4rBxFAuIVXhYAT0IOr-14" value="Scheduled&#xa;Tasks" style="dashed=0;connectable=0;html=1;fillColor=#e3c800;strokeColor=#B09500;shape=mxgraph.gcp2.scheduled_tasks;part=1;labelPosition=right;verticalLabelPosition=middle;align=left;verticalAlign=middle;spacingLeft=5;fontSize=24;fontColor=#000000;fontStyle=0;container=0;" parent="1" vertex="1">
          <mxGeometry x="2402.5" y="331.25000000000006" width="32" height="32" as="geometry">
            <mxPoint x="5" y="-16" as="offset" />
          </mxGeometry>
        </mxCell>
        <mxCell id="8Q4rBxFAuIVXhYAT0IOr-65" style="rounded=0;orthogonalLoop=1;jettySize=auto;html=1;strokeColor=#3666ab;strokeWidth=24;fontSize=48;fillColor=#dae8fc;opacity=60;" parent="1" source="8Q4rBxFAuIVXhYAT0IOr-44" target="8Q4rBxFAuIVXhYAT0IOr-4" edge="1">
          <mxGeometry relative="1" as="geometry" />
        </mxCell>
        <mxCell id="8Q4rBxFAuIVXhYAT0IOr-44" value="Calculator" style="outlineConnect=0;dashed=0;verticalLabelPosition=bottom;verticalAlign=top;align=center;html=1;shape=mxgraph.aws3.lambda_function;fontSize=32;fontFamily=Verdana;labelBackgroundColor=none;fontStyle=0;fillColor=#e3c800;strokeColor=#B09500;rounded=0;fontColor=#000000;container=0;" parent="1" vertex="1">
          <mxGeometry x="2854" y="847.1350000000001" width="69" height="72" as="geometry" />
        </mxCell>
        <mxCell id="8Q4rBxFAuIVXhYAT0IOr-47" value="Amazon SQS" style="outlineConnect=0;dashed=0;verticalLabelPosition=middle;verticalAlign=bottom;align=center;html=1;whiteSpace=wrap;fontSize=24;fontStyle=0;spacing=3;shape=mxgraph.aws4.productIcon;prIcon=mxgraph.aws4.sqs;fillColor=#e3c800;strokeColor=#B09500;rounded=0;fontColor=#000000;container=0;" parent="1" vertex="1">
          <mxGeometry x="2439.5" y="801.0050000000001" width="102" height="166" as="geometry" />
        </mxCell>
        <mxCell id="8Q4rBxFAuIVXhYAT0IOr-46" style="edgeStyle=orthogonalEdgeStyle;shape=connector;rounded=0;orthogonalLoop=1;jettySize=auto;html=1;labelBackgroundColor=default;fontFamily=Helvetica;fontSize=24;fontColor=#FFFFFF;startArrow=none;startFill=0;endArrow=classic;endFill=1;strokeColor=#4D4D4D;strokeWidth=8;fillColor=#e3c800;" parent="1" source="8Q4rBxFAuIVXhYAT0IOr-47" target="8Q4rBxFAuIVXhYAT0IOr-44" edge="1">
          <mxGeometry relative="1" as="geometry" />
        </mxCell>
        <mxCell id="8Q4rBxFAuIVXhYAT0IOr-36" value="Amazon SQS" style="outlineConnect=0;dashed=0;verticalLabelPosition=middle;verticalAlign=bottom;align=center;html=1;whiteSpace=wrap;fontSize=24;fontStyle=0;spacing=3;shape=mxgraph.aws4.productIcon;prIcon=mxgraph.aws4.sqs;fillColor=#e3c800;strokeColor=#B09500;rounded=0;fontColor=#000000;" parent="1" vertex="1">
          <mxGeometry x="2439.5" y="1448.005" width="102" height="166" as="geometry" />
        </mxCell>
        <mxCell id="8Q4rBxFAuIVXhYAT0IOr-37" value="Calculator" style="outlineConnect=0;dashed=0;verticalLabelPosition=bottom;verticalAlign=top;align=center;html=1;shape=mxgraph.aws3.lambda_function;fontSize=32;fontFamily=Verdana;labelBackgroundColor=none;fontStyle=0;fillColor=#e3c800;strokeColor=#B09500;rounded=0;fontColor=#000000;" parent="1" vertex="1">
          <mxGeometry x="2864.25" y="1495.005" width="69.5" height="72" as="geometry" />
        </mxCell>
        <mxCell id="8Q4rBxFAuIVXhYAT0IOr-38" value="" style="edgeStyle=orthogonalEdgeStyle;rounded=0;orthogonalLoop=1;jettySize=auto;html=1;fontSize=24;strokeWidth=8;fillColor=#e3c800;strokeColor=#4D4D4D;fontColor=#FFFFFF;fontStyle=0" parent="1" source="8Q4rBxFAuIVXhYAT0IOr-36" target="8Q4rBxFAuIVXhYAT0IOr-37" edge="1">
          <mxGeometry relative="1" as="geometry" />
        </mxCell>
        <mxCell id="8Q4rBxFAuIVXhYAT0IOr-63" style="edgeStyle=orthogonalEdgeStyle;rounded=0;orthogonalLoop=1;jettySize=auto;html=1;fontSize=36;strokeColor=#4D4D4D;strokeWidth=8;" parent="1" source="8Q4rBxFAuIVXhYAT0IOr-1" target="8Q4rBxFAuIVXhYAT0IOr-29" edge="1">
          <mxGeometry relative="1" as="geometry">
            <Array as="points">
              <mxPoint x="2184" y="884" />
              <mxPoint x="2184" y="181" />
            </Array>
          </mxGeometry>
        </mxCell>
        <mxCell id="8Q4rBxFAuIVXhYAT0IOr-64" style="edgeStyle=orthogonalEdgeStyle;rounded=0;orthogonalLoop=1;jettySize=auto;html=1;fontSize=36;strokeColor=#4D4D4D;strokeWidth=8;" parent="1" source="8Q4rBxFAuIVXhYAT0IOr-1" target="8Q4rBxFAuIVXhYAT0IOr-36" edge="1">
          <mxGeometry relative="1" as="geometry">
            <Array as="points">
              <mxPoint x="2184" y="884" />
              <mxPoint x="2184" y="1531" />
            </Array>
          </mxGeometry>
        </mxCell>
        <mxCell id="8Q4rBxFAuIVXhYAT0IOr-1" value="Fanout SNS" style="outlineConnect=0;dashed=0;verticalLabelPosition=middle;verticalAlign=bottom;align=center;html=1;whiteSpace=wrap;fontSize=32;fontStyle=0;spacing=3;shape=mxgraph.aws4.productIcon;prIcon=mxgraph.aws4.sns;fillColor=#e3c800;strokeColor=#B09500;rounded=0;fontColor=#000000;container=0;" parent="1" vertex="1">
          <mxGeometry x="1766" y="775.63" width="122.5" height="215" as="geometry" />
        </mxCell>
        <mxCell id="8Q4rBxFAuIVXhYAT0IOr-52" style="edgeStyle=orthogonalEdgeStyle;rounded=0;orthogonalLoop=1;jettySize=auto;html=1;strokeColor=#4D4D4D;strokeWidth=8;" parent="1" source="8Q4rBxFAuIVXhYAT0IOr-48" target="8Q4rBxFAuIVXhYAT0IOr-1" edge="1">
          <mxGeometry relative="1" as="geometry" />
        </mxCell>
        <mxCell id="8Q4rBxFAuIVXhYAT0IOr-48" value="&lt;br style=&quot;font-size: 24px;&quot;&gt;Beacon&lt;br style=&quot;font-size: 24px;&quot;&gt;Aggregate Data Stream" style="outlineConnect=0;fillColor=#e3c800;dashed=0;verticalLabelPosition=middle;verticalAlign=bottom;align=center;html=1;whiteSpace=wrap;fontSize=24;fontStyle=0;spacing=3;shape=mxgraph.aws4.productIcon;prIcon=mxgraph.aws4.kinesis_data_streams;fontFamily=Verdana;labelBackgroundColor=none;strokeColor=#B09500;fontColor=#000000;rounded=0;container=0;" parent="1" vertex="1">
          <mxGeometry x="1481.5" y="758.0000000000001" width="129" height="252" as="geometry" />
        </mxCell>
        <mxCell id="8Q4rBxFAuIVXhYAT0IOr-17" value="&lt;span style=&quot;font-size: 24px;&quot;&gt;Evenbridge&lt;br style=&quot;font-size: 24px;&quot;&gt;Default Bus&lt;br style=&quot;font-size: 24px;&quot;&gt;&lt;/span&gt;" style="sketch=0;outlineConnect=0;fontColor=#000000;fillColor=#e3c800;strokeColor=#B09500;dashed=0;verticalLabelPosition=bottom;verticalAlign=top;align=center;html=1;fontSize=24;fontStyle=0;aspect=fixed;pointerEvents=1;shape=mxgraph.aws4.eventbridge_default_event_bus_resource;rounded=1;fontFamily=Verdana;gradientDirection=north;container=0;" parent="1" vertex="1">
          <mxGeometry x="3302" y="824.3299999999999" width="175.67" height="119.36" as="geometry" />
        </mxCell>
        <mxCell id="8Q4rBxFAuIVXhYAT0IOr-66" style="rounded=0;orthogonalLoop=1;jettySize=auto;html=1;strokeColor=#3666ab;strokeWidth=24;fontSize=48;fillColor=#dae8fc;opacity=60;exitX=0;exitY=0.5;exitDx=0;exitDy=0;exitPerimeter=0;" parent="1" source="8Q4rBxFAuIVXhYAT0IOr-12" target="8Q4rBxFAuIVXhYAT0IOr-4" edge="1">
          <mxGeometry relative="1" as="geometry">
            <mxPoint x="2864" y="874.065685534591" as="sourcePoint" />
            <mxPoint x="1772.0000000000005" y="270.480427672956" as="targetPoint" />
          </mxGeometry>
        </mxCell>
        <mxCell id="8Q4rBxFAuIVXhYAT0IOr-67" style="rounded=0;orthogonalLoop=1;jettySize=auto;html=1;strokeColor=#3666ab;strokeWidth=24;fontSize=48;fillColor=#dae8fc;opacity=60;exitX=0;exitY=0.5;exitDx=0;exitDy=0;exitPerimeter=0;" parent="1" source="8Q4rBxFAuIVXhYAT0IOr-15" target="8Q4rBxFAuIVXhYAT0IOr-4" edge="1">
          <mxGeometry relative="1" as="geometry">
            <mxPoint x="2864" y="191.0050000000001" as="sourcePoint" />
            <mxPoint x="1782.0000000000005" y="280.480427672956" as="targetPoint" />
          </mxGeometry>
        </mxCell>
        <mxCell id="8Q4rBxFAuIVXhYAT0IOr-68" style="rounded=0;orthogonalLoop=1;jettySize=auto;html=1;strokeColor=#3666ab;strokeWidth=24;fontSize=48;fillColor=#dae8fc;opacity=60;exitX=0.145;exitY=0.145;exitDx=0;exitDy=0;exitPerimeter=0;" parent="1" source="8Q4rBxFAuIVXhYAT0IOr-37" target="8Q4rBxFAuIVXhYAT0IOr-4" edge="1">
          <mxGeometry relative="1" as="geometry">
            <mxPoint x="2864" y="874.065685534591" as="sourcePoint" />
            <mxPoint x="1772.0000000000005" y="270.480427672956" as="targetPoint" />
          </mxGeometry>
        </mxCell>
        <mxCell id="8Q4rBxFAuIVXhYAT0IOr-69" style="edgeStyle=orthogonalEdgeStyle;rounded=0;orthogonalLoop=1;jettySize=auto;html=1;strokeColor=#4D4D4D;strokeWidth=8;" parent="1" target="8Q4rBxFAuIVXhYAT0IOr-48" edge="1">
          <mxGeometry relative="1" as="geometry">
            <mxPoint x="1238" y="884" as="sourcePoint" />
            <mxPoint x="1776" y="893.1428571428573" as="targetPoint" />
          </mxGeometry>
        </mxCell>
        <mxCell id="8Q4rBxFAuIVXhYAT0IOr-70" style="edgeStyle=orthogonalEdgeStyle;rounded=0;orthogonalLoop=1;jettySize=auto;html=1;strokeColor=#4D4D4D;strokeWidth=8;" parent="1" source="8Q4rBxFAuIVXhYAT0IOr-17" edge="1">
          <mxGeometry relative="1" as="geometry">
            <mxPoint x="3490" y="882.55" as="sourcePoint" />
            <mxPoint x="3723" y="883" as="targetPoint" />
          </mxGeometry>
        </mxCell>
        <mxCell id="H6MUFZ5RtAEz5xBZW3GO-1" value="" style="whiteSpace=wrap;html=1;dashed=1;fillColor=#e3c800;opacity=40;fontSize=18;fontFamily=Verdana;labelBackgroundColor=none;strokeColor=#B09500;fontStyle=0;fontColor=#000000;" parent="1" vertex="1">
          <mxGeometry x="1985" y="-919" width="544" height="331" as="geometry" />
        </mxCell>
        <mxCell id="H6MUFZ5RtAEz5xBZW3GO-2" style="edgeStyle=orthogonalEdgeStyle;rounded=0;orthogonalLoop=1;jettySize=auto;html=1;strokeWidth=4;strokeColor=#B09500;fillColor=#e3c800;" parent="1" source="H6MUFZ5RtAEz5xBZW3GO-3" target="H6MUFZ5RtAEz5xBZW3GO-6" edge="1">
          <mxGeometry relative="1" as="geometry" />
        </mxCell>
        <mxCell id="H6MUFZ5RtAEz5xBZW3GO-3" value="Aggregate Data Stream" style="outlineConnect=0;fillColor=#e3c800;dashed=0;verticalLabelPosition=middle;verticalAlign=bottom;align=center;html=1;whiteSpace=wrap;fontSize=18;fontStyle=0;spacing=3;shape=mxgraph.aws4.productIcon;prIcon=mxgraph.aws4.kinesis_data_streams;fontFamily=Verdana;labelBackgroundColor=none;strokeColor=#B09500;fontColor=#000000;" parent="1" vertex="1">
          <mxGeometry x="1728" y="-844" width="117" height="193" as="geometry" />
        </mxCell>
        <mxCell id="H6MUFZ5RtAEz5xBZW3GO-4" value="Availability" style="text;fillColor=#e3c800;html=1;fontSize=18;fontStyle=0;verticalAlign=middle;align=center;labelBackgroundColor=none;opacity=50;fontFamily=Verdana;strokeColor=#B09500;fontColor=#000000;" parent="1" vertex="1">
          <mxGeometry x="1986" y="-919" width="172" height="74" as="geometry" />
        </mxCell>
        <mxCell id="H6MUFZ5RtAEz5xBZW3GO-5" style="edgeStyle=orthogonalEdgeStyle;rounded=0;orthogonalLoop=1;jettySize=auto;html=1;labelBackgroundColor=none;startArrow=none;startFill=0;fontFamily=Verdana;fontSize=18;fillColor=#e3c800;fontColor=#CCCCCC;strokeColor=#B09500;strokeWidth=4;" parent="1" source="H6MUFZ5RtAEz5xBZW3GO-6" target="H6MUFZ5RtAEz5xBZW3GO-8" edge="1">
          <mxGeometry relative="1" as="geometry">
            <mxPoint x="2328" y="-746.8571428571422" as="targetPoint" />
          </mxGeometry>
        </mxCell>
        <mxCell id="H6MUFZ5RtAEz5xBZW3GO-6" value="Writer" style="outlineConnect=0;dashed=0;verticalLabelPosition=bottom;verticalAlign=top;align=center;html=1;shape=mxgraph.aws3.lambda_function;fillColor=#e3c800;fontSize=18;fontFamily=Verdana;labelBackgroundColor=none;strokeColor=#B09500;fontStyle=0;labelBorderColor=none;shadow=0;fontColor=#000000;" parent="1" vertex="1">
          <mxGeometry x="2069" y="-783.5" width="69" height="72" as="geometry" />
        </mxCell>
        <mxCell id="H6MUFZ5RtAEz5xBZW3GO-7" style="edgeStyle=orthogonalEdgeStyle;rounded=0;orthogonalLoop=1;jettySize=auto;html=1;strokeWidth=4;strokeColor=#B09500;fillColor=#e3c800;" parent="1" source="H6MUFZ5RtAEz5xBZW3GO-8" target="H6MUFZ5RtAEz5xBZW3GO-9" edge="1">
          <mxGeometry relative="1" as="geometry" />
        </mxCell>
        <mxCell id="H6MUFZ5RtAEz5xBZW3GO-8" value="Availability Service" style="outlineConnect=0;gradientDirection=north;fillColor=#e3c800;dashed=0;verticalLabelPosition=bottom;verticalAlign=top;align=center;html=1;fontSize=18;fontStyle=0;aspect=fixed;shape=mxgraph.aws4.resourceIcon;resIcon=mxgraph.aws4.fargate;fontFamily=Verdana;labelBackgroundColor=none;strokeColor=#B09500;fontColor=#000000;" parent="1" vertex="1">
          <mxGeometry x="2330" y="-786.5" width="78" height="78" as="geometry" />
        </mxCell>
        <mxCell id="H6MUFZ5RtAEz5xBZW3GO-9" value="&lt;font style=&quot;font-size: 18px;&quot;&gt;EventBridge&lt;/font&gt;" style="sketch=0;points=[[0,0,0],[0.25,0,0],[0.5,0,0],[0.75,0,0],[1,0,0],[0,1,0],[0.25,1,0],[0.5,1,0],[0.75,1,0],[1,1,0],[0,0.25,0],[0,0.5,0],[0,0.75,0],[1,0.25,0],[1,0.5,0],[1,0.75,0]];outlineConnect=0;fontColor=#000000;gradientDirection=north;fillColor=#e3c800;strokeColor=#B09500;dashed=0;verticalLabelPosition=bottom;verticalAlign=top;align=center;html=1;fontSize=12;fontStyle=0;aspect=fixed;shape=mxgraph.aws4.resourceIcon;resIcon=mxgraph.aws4.eventbridge;" parent="1" vertex="1">
          <mxGeometry x="2643" y="-786.5" width="78" height="78" as="geometry" />
        </mxCell>
        <mxCell id="H6MUFZ5RtAEz5xBZW3GO-20" value="Device Gateway" style="sketch=0;outlineConnect=0;fontColor=#000000;fillColor=#e3c800;strokeColor=#B09500;dashed=0;verticalLabelPosition=bottom;verticalAlign=top;align=center;html=1;fontSize=18;fontStyle=0;aspect=fixed;pointerEvents=1;shape=mxgraph.aws4.iot_device_gateway;" parent="1" vertex="1">
          <mxGeometry x="2397" y="-2556.5" width="187" height="187" as="geometry" />
        </mxCell>
        <mxCell id="H6MUFZ5RtAEz5xBZW3GO-30" value="" style="endArrow=classic;html=1;rounded=0;entryX=1;entryY=1;entryDx=0;entryDy=0;fillColor=#e3c800;strokeColor=#B09500;strokeWidth=4;opacity=50;" parent="1" source="H6MUFZ5RtAEz5xBZW3GO-20" target="H6MUFZ5RtAEz5xBZW3GO-19" edge="1">
          <mxGeometry width="50" height="50" relative="1" as="geometry">
            <mxPoint x="2296" y="-2351" as="sourcePoint" />
            <mxPoint x="2346" y="-2401" as="targetPoint" />
          </mxGeometry>
        </mxCell>
        <mxCell id="H6MUFZ5RtAEz5xBZW3GO-31" value="&lt;font color=&quot;#000000&quot; style=&quot;font-size: 18px;&quot;&gt;Coverage range&lt;/font&gt;" style="edgeLabel;html=1;align=center;verticalAlign=middle;resizable=0;points=[];labelBackgroundColor=none;" parent="H6MUFZ5RtAEz5xBZW3GO-30" vertex="1" connectable="0">
          <mxGeometry x="-0.2211" y="-5" relative="1" as="geometry">
            <mxPoint x="57" y="-32" as="offset" />
          </mxGeometry>
        </mxCell>
        <mxCell id="H6MUFZ5RtAEz5xBZW3GO-38" value="" style="group" parent="1" vertex="1" connectable="0">
          <mxGeometry x="2128" y="-2683" width="169" height="130" as="geometry" />
        </mxCell>
        <mxCell id="H6MUFZ5RtAEz5xBZW3GO-18" value="" style="group" parent="H6MUFZ5RtAEz5xBZW3GO-38" vertex="1" connectable="0">
          <mxGeometry x="10" width="159" height="105" as="geometry" />
        </mxCell>
        <mxCell id="H6MUFZ5RtAEz5xBZW3GO-15" value="" style="sketch=0;dashed=0;connectable=0;html=1;fillColor=#e3c800;strokeColor=#B09500;shape=mxgraph.gcp2.beacon;part=1;fontColor=#000000;gradientColor=none;" parent="H6MUFZ5RtAEz5xBZW3GO-18" vertex="1">
          <mxGeometry width="85" height="94" as="geometry" />
        </mxCell>
        <mxCell id="H6MUFZ5RtAEz5xBZW3GO-17" value="" style="html=1;verticalLabelPosition=bottom;align=center;labelBackgroundColor=#ffffff;verticalAlign=top;strokeWidth=2;strokeColor=#0080F0;shadow=0;dashed=0;shape=mxgraph.ios7.icons.bluetooth;pointerEvents=1" parent="H6MUFZ5RtAEz5xBZW3GO-18" vertex="1">
          <mxGeometry x="35" y="54" width="15" height="28.799999999999997" as="geometry" />
        </mxCell>
        <mxCell id="H6MUFZ5RtAEz5xBZW3GO-63" value="" style="image;html=1;image=img/lib/clip_art/general/Battery_100_128x128.png" parent="H6MUFZ5RtAEz5xBZW3GO-18" vertex="1">
          <mxGeometry x="79" y="25" width="80" height="80" as="geometry" />
        </mxCell>
        <mxCell id="H6MUFZ5RtAEz5xBZW3GO-34" value="&lt;font color=&quot;#000000&quot;&gt;Beacon - A&lt;/font&gt;" style="text;html=1;strokeColor=none;fillColor=none;align=center;verticalAlign=middle;whiteSpace=wrap;rounded=0;fontSize=18;" parent="H6MUFZ5RtAEz5xBZW3GO-38" vertex="1">
          <mxGeometry y="100" width="105" height="30" as="geometry" />
        </mxCell>
        <mxCell id="H6MUFZ5RtAEz5xBZW3GO-41" value="" style="group" parent="1" vertex="1" connectable="0">
          <mxGeometry x="2151" y="-2426" width="179" height="130" as="geometry" />
        </mxCell>
        <mxCell id="H6MUFZ5RtAEz5xBZW3GO-42" value="" style="group" parent="H6MUFZ5RtAEz5xBZW3GO-41" vertex="1" connectable="0">
          <mxGeometry x="10" width="85" height="94" as="geometry" />
        </mxCell>
        <mxCell id="H6MUFZ5RtAEz5xBZW3GO-43" value="" style="sketch=0;dashed=0;connectable=0;html=1;fillColor=#e3c800;strokeColor=#B09500;shape=mxgraph.gcp2.beacon;part=1;fontColor=#000000;gradientColor=none;" parent="H6MUFZ5RtAEz5xBZW3GO-42" vertex="1">
          <mxGeometry width="85" height="94" as="geometry" />
        </mxCell>
        <mxCell id="H6MUFZ5RtAEz5xBZW3GO-44" value="" style="html=1;verticalLabelPosition=bottom;align=center;labelBackgroundColor=#ffffff;verticalAlign=top;strokeWidth=2;strokeColor=#0080F0;shadow=0;dashed=0;shape=mxgraph.ios7.icons.bluetooth;pointerEvents=1" parent="H6MUFZ5RtAEz5xBZW3GO-42" vertex="1">
          <mxGeometry x="35" y="54" width="15" height="28.799999999999997" as="geometry" />
        </mxCell>
        <mxCell id="H6MUFZ5RtAEz5xBZW3GO-45" value="&lt;font color=&quot;#000000&quot;&gt;Beacon - B&lt;/font&gt;" style="text;html=1;strokeColor=none;fillColor=none;align=center;verticalAlign=middle;whiteSpace=wrap;rounded=0;fontSize=18;" parent="H6MUFZ5RtAEz5xBZW3GO-41" vertex="1">
          <mxGeometry y="100" width="105" height="30" as="geometry" />
        </mxCell>
        <mxCell id="H6MUFZ5RtAEz5xBZW3GO-65" value="" style="image;html=1;image=img/lib/clip_art/general/Battery_50_128x128.png" parent="H6MUFZ5RtAEz5xBZW3GO-41" vertex="1">
          <mxGeometry x="99" y="25" width="80" height="80" as="geometry" />
        </mxCell>
        <mxCell id="H6MUFZ5RtAEz5xBZW3GO-46" value="" style="group" parent="1" vertex="1" connectable="0">
          <mxGeometry x="2611" y="-2748" width="105" height="130" as="geometry" />
        </mxCell>
        <mxCell id="H6MUFZ5RtAEz5xBZW3GO-47" value="" style="group" parent="H6MUFZ5RtAEz5xBZW3GO-46" vertex="1" connectable="0">
          <mxGeometry x="10" width="85" height="94" as="geometry" />
        </mxCell>
        <mxCell id="H6MUFZ5RtAEz5xBZW3GO-48" value="" style="sketch=0;dashed=0;connectable=0;html=1;fillColor=#e3c800;strokeColor=#B09500;shape=mxgraph.gcp2.beacon;part=1;fontColor=#000000;gradientColor=none;" parent="H6MUFZ5RtAEz5xBZW3GO-47" vertex="1">
          <mxGeometry width="85" height="94" as="geometry" />
        </mxCell>
        <mxCell id="H6MUFZ5RtAEz5xBZW3GO-49" value="" style="html=1;verticalLabelPosition=bottom;align=center;labelBackgroundColor=#ffffff;verticalAlign=top;strokeWidth=2;strokeColor=#0080F0;shadow=0;dashed=0;shape=mxgraph.ios7.icons.bluetooth;pointerEvents=1" parent="H6MUFZ5RtAEz5xBZW3GO-47" vertex="1">
          <mxGeometry x="35" y="54" width="15" height="28.799999999999997" as="geometry" />
        </mxCell>
        <mxCell id="H6MUFZ5RtAEz5xBZW3GO-50" value="&lt;font color=&quot;#000000&quot;&gt;Beacon - C&lt;/font&gt;" style="text;html=1;strokeColor=none;fillColor=none;align=center;verticalAlign=middle;whiteSpace=wrap;rounded=0;fontSize=18;" parent="H6MUFZ5RtAEz5xBZW3GO-46" vertex="1">
          <mxGeometry y="100" width="105" height="30" as="geometry" />
        </mxCell>
        <mxCell id="H6MUFZ5RtAEz5xBZW3GO-51" value="" style="group" parent="1" vertex="1" connectable="0">
          <mxGeometry x="1731" y="-2528" width="175" height="130" as="geometry" />
        </mxCell>
        <mxCell id="H6MUFZ5RtAEz5xBZW3GO-52" value="" style="group" parent="H6MUFZ5RtAEz5xBZW3GO-51" vertex="1" connectable="0">
          <mxGeometry x="10" width="165" height="108" as="geometry" />
        </mxCell>
        <mxCell id="H6MUFZ5RtAEz5xBZW3GO-53" value="" style="sketch=0;dashed=0;connectable=0;html=1;fillColor=#e3c800;strokeColor=#B09500;shape=mxgraph.gcp2.beacon;part=1;fontColor=#000000;gradientColor=none;" parent="H6MUFZ5RtAEz5xBZW3GO-52" vertex="1">
          <mxGeometry width="85" height="94" as="geometry" />
        </mxCell>
        <mxCell id="H6MUFZ5RtAEz5xBZW3GO-54" value="" style="html=1;verticalLabelPosition=bottom;align=center;labelBackgroundColor=#ffffff;verticalAlign=top;strokeWidth=2;strokeColor=#0080F0;shadow=0;dashed=0;shape=mxgraph.ios7.icons.bluetooth;pointerEvents=1" parent="H6MUFZ5RtAEz5xBZW3GO-52" vertex="1">
          <mxGeometry x="35" y="54" width="15" height="28.799999999999997" as="geometry" />
        </mxCell>
        <mxCell id="H6MUFZ5RtAEz5xBZW3GO-67" value="" style="image;html=1;image=img/lib/clip_art/general/Battery_100_128x128.png" parent="H6MUFZ5RtAEz5xBZW3GO-52" vertex="1">
          <mxGeometry x="85" y="28" width="80" height="80" as="geometry" />
        </mxCell>
        <mxCell id="H6MUFZ5RtAEz5xBZW3GO-55" value="&lt;font color=&quot;#000000&quot;&gt;Beacon - D&lt;/font&gt;" style="text;html=1;strokeColor=none;fillColor=none;align=center;verticalAlign=middle;whiteSpace=wrap;rounded=0;fontSize=18;" parent="H6MUFZ5RtAEz5xBZW3GO-51" vertex="1">
          <mxGeometry y="100" width="105" height="30" as="geometry" />
        </mxCell>
        <mxCell id="H6MUFZ5RtAEz5xBZW3GO-57" value="" style="group" parent="1" vertex="1" connectable="0">
          <mxGeometry x="2391" y="-2234" width="162" height="130" as="geometry" />
        </mxCell>
        <mxCell id="H6MUFZ5RtAEz5xBZW3GO-58" value="" style="group" parent="H6MUFZ5RtAEz5xBZW3GO-57" vertex="1" connectable="0">
          <mxGeometry x="10" width="152" height="94" as="geometry" />
        </mxCell>
        <mxCell id="H6MUFZ5RtAEz5xBZW3GO-59" value="" style="sketch=0;dashed=0;connectable=0;html=1;fillColor=#e3c800;strokeColor=#B09500;shape=mxgraph.gcp2.beacon;part=1;fontColor=#000000;gradientColor=none;" parent="H6MUFZ5RtAEz5xBZW3GO-58" vertex="1">
          <mxGeometry width="85" height="94" as="geometry" />
        </mxCell>
        <mxCell id="H6MUFZ5RtAEz5xBZW3GO-60" value="" style="html=1;verticalLabelPosition=bottom;align=center;labelBackgroundColor=#ffffff;verticalAlign=top;strokeWidth=2;strokeColor=#0080F0;shadow=0;dashed=0;shape=mxgraph.ios7.icons.bluetooth;pointerEvents=1" parent="H6MUFZ5RtAEz5xBZW3GO-58" vertex="1">
          <mxGeometry x="35" y="54" width="15" height="28.799999999999997" as="geometry" />
        </mxCell>
        <mxCell id="H6MUFZ5RtAEz5xBZW3GO-62" value="" style="image;html=1;image=img/lib/clip_art/general/Battery_0_128x128.png" parent="H6MUFZ5RtAEz5xBZW3GO-58" vertex="1">
          <mxGeometry x="72" y="7" width="80" height="80" as="geometry" />
        </mxCell>
        <mxCell id="H6MUFZ5RtAEz5xBZW3GO-61" value="&lt;font color=&quot;#000000&quot;&gt;Beacon - E&lt;/font&gt;" style="text;html=1;strokeColor=none;fillColor=none;align=center;verticalAlign=middle;whiteSpace=wrap;rounded=0;fontSize=18;" parent="H6MUFZ5RtAEz5xBZW3GO-57" vertex="1">
          <mxGeometry y="100" width="105" height="30" as="geometry" />
        </mxCell>
        <mxCell id="H6MUFZ5RtAEz5xBZW3GO-64" value="" style="image;html=1;image=img/lib/clip_art/general/Battery_100_128x128.png" parent="1" vertex="1">
          <mxGeometry x="2692.5" y="-2723" width="80" height="80" as="geometry" />
        </mxCell>
        <mxCell id="H6MUFZ5RtAEz5xBZW3GO-66" value="" style="image;html=1;image=img/lib/clip_art/general/Battery_100_128x128.png" parent="1" vertex="1">
          <mxGeometry x="2584" y="-2500" width="80" height="80" as="geometry" />
        </mxCell>
      </root>
    </mxGraphModel>
  </diagram>
</mxfile>
